<svg xmlns="http://www.w3.org/2000/svg" version="1.1" xmlns:xlink="http://www.w3.org/1999/xlink" xmlns:svgjs="http://svgjs.dev/svgjs" width="2000" height="459" viewBox="0 0 2000 459"><g transform="matrix(1,0,0,1,-1.2121212121212466,-0.01229874074158488)"><svg viewBox="0 0 396 91" data-background-color="#ffffff" preserveAspectRatio="xMidYMid meet" height="459" width="2000" xmlns="http://www.w3.org/2000/svg" xmlns:xlink="http://www.w3.org/1999/xlink"><g id="tight-bounds" transform="matrix(1,0,0,1,0.2400000000000091,0.002438312434605905)"><svg viewBox="0 0 395.52 90.99512337513079" height="90.99512337513079" width="395.52"><g><svg viewBox="0 0 395.52 90.99512337513079" height="90.99512337513079" width="395.52"><g><svg viewBox="0 0 395.52 90.99512337513079" height="90.99512337513079" width="395.52"><g><svg viewBox="0 0 395.52 90.99512337513079" height="90.99512337513079" width="395.52"><g><svg viewBox="0 0 395.52 90.99512337513079" height="90.99512337513079" width="395.52"><g id="textblocktransform"><svg viewBox="0 0 395.52 90.99512337513079" height="90.99512337513079" width="395.52" id="textblock"><g><svg viewBox="0 0 395.52 62.073561368209255" height="62.073561368209255" width="395.52"><g transform="matrix(1,0,0,1,0,0)"><svg width="395.52" viewBox="1.5 -36.4 298.17 46.8" height="62.073561368209255" data-palette-color="#795744"><path d="M20.2-28.6L20.2-28.6Q18.7-29.25 15.7-29.25 12.7-29.25 10.85-26.65 9-24.05 9-17.55 9-11.05 10.78-8.33 12.55-5.6 16.05-5.6L16.05-5.6Q21.4-5.6 25.65-7.2L25.65-7.2 27.45-2.75Q22.15 0.4 15 0.4 7.85 0.4 4.67-3.65 1.5-7.7 1.5-16.9 1.5-26.1 5.43-30.5 9.35-34.9 16.45-34.9L16.45-34.9Q22.15-34.9 27.3-31.75L27.3-31.75Q27.3-31.45 27.3-30.6 27.3-29.75 26.95-27.7 26.6-25.65 25.95-24.35L25.95-24.35 21.2-24.35Q20.5-25.7 20.2-28.6ZM41.07 0.4Q35.15 0.4 32.3-2.75 29.45-5.9 29.45-12.28 29.45-18.65 32.62-22.03 35.8-25.4 41.75-25.4 47.7-25.4 50.57-22.4 53.45-19.4 53.45-13.03 53.45-6.65 50.22-3.13 47 0.4 41.07 0.4ZM36.65-12.7L36.65-12.7Q36.65-4.7 41.45-4.7L41.45-4.7Q43.9-4.7 45.07-6.53 46.25-8.35 46.25-12.5L46.25-12.5Q46.25-20.3 41.35-20.3L41.35-20.3Q38.95-20.3 37.8-18.57 36.65-16.85 36.65-12.7ZM60.65-17.4L56.8-17.9Q56.24-20.4 56.24-22.23 56.24-24.05 56.3-25L56.3-25 76.55-25 77.05-20.8 67.3-8.35Q65.94-6.55 64.34-5.25L64.34-5.25 64.59-4.7Q66.05-5.15 68.64-5.15L68.64-5.15 71.39-5.15Q72.14-6.95 73.05-7.8L73.05-7.8 76.9-7.3Q77.44-4.8 77.44-2.9 77.44-1 77.4 0L77.4 0 56.24 0 55.74-4.1 65.55-16.7Q66.89-18.5 68.5-19.8L68.5-19.8 68.25-20.35Q66.8-19.9 64.19-19.9L64.19-19.9 62.25-19.9Q61.5-18.2 60.65-17.4L60.65-17.4ZM85.99 5.8L86.69 5.8Q87.59 5.8 88.62 4.13 89.64 2.45 90.04 0.15L90.04 0.15 81.84-19.25Q79.39-20.05 78.54-21.15L78.54-21.15 79.04-25 90.54-25 91.04-21.15Q90.39-20.35 88.84-19.7L88.84-19.7 91.59-12.15Q92.49-9.8 92.84-7.5L92.84-7.5 92.99-6.8 93.69-6.8Q94.09-9.3 95.09-12.05L95.09-12.05 97.74-19.45Q95.89-20.15 95.14-21.15L95.14-21.15 95.64-25 106.64-25 107.14-21.15Q106.24-20 103.84-19.2L103.84-19.2 95.59 0.3Q93.24 5.85 91.99 7.45L91.99 7.45Q89.79 10.4 85.87 10.4 81.94 10.4 79.89 8.35L79.89 8.35Q79.84 7.85 79.84 7.35L79.84 7.35Q79.84 4.6 80.99 2.15L80.99 2.15 85.14 2.15Q85.89 3.5 85.99 5.8L85.99 5.8ZM138.49-28.6L138.49-28.6Q136.99-29.25 133.99-29.25 130.99-29.25 129.14-26.65 127.29-24.05 127.29-17.55 127.29-11.05 129.06-8.33 130.84-5.6 134.34-5.6L134.34-5.6Q139.69-5.6 143.94-7.2L143.94-7.2 145.74-2.75Q140.44 0.4 133.29 0.4 126.14 0.4 122.96-3.65 119.79-7.7 119.79-16.9 119.79-26.1 123.71-30.5 127.64-34.9 134.74-34.9L134.74-34.9Q140.44-34.9 145.59-31.75L145.59-31.75Q145.59-31.45 145.59-30.6 145.59-29.75 145.24-27.7 144.89-25.65 144.24-24.35L144.24-24.35 139.49-24.35Q138.79-25.7 138.49-28.6ZM159.36 0.4Q153.44 0.4 150.59-2.75 147.74-5.9 147.74-12.28 147.74-18.65 150.91-22.03 154.09-25.4 160.04-25.4 165.99-25.4 168.86-22.4 171.74-19.4 171.74-13.03 171.74-6.65 168.51-3.13 165.29 0.4 159.36 0.4ZM154.94-12.7L154.94-12.7Q154.94-4.7 159.74-4.7L159.74-4.7Q162.19-4.7 163.36-6.53 164.54-8.35 164.54-12.5L164.54-12.5Q164.54-20.3 159.64-20.3L159.64-20.3Q157.24-20.3 156.09-18.57 154.94-16.85 154.94-12.7ZM174.28-21.15L174.78-25Q177.53-25.6 179.73-25.6 181.93-25.6 183.38-25.5L183.38-25.5 183.38-23Q184.58-24 186.38-24.7 188.18-25.4 189.63-25.4L189.63-25.4Q195.33-25.4 197.23-22.55L197.23-22.55Q198.48-23.75 200.53-24.58 202.58-25.4 204.33-25.4L204.33-25.4Q209.83-25.4 211.73-22.93 213.63-20.45 213.63-13.65L213.63-13.65 213.63-5.55Q215.58-4.8 216.38-3.85L216.38-3.85 215.88 0 204.38 0 203.88-3.85Q204.58-4.8 206.63-5.55L206.63-5.55 206.63-15.45Q206.63-18.2 205.88-19.1 205.13-20 202.91-20 200.68-20 198.68-18.35L198.68-18.35Q198.93-16.65 198.93-13.65L198.93-13.65 198.93-5.55Q200.88-4.8 201.68-3.85L201.68-3.85 201.18 0 189.68 0 189.18-3.85Q189.88-4.8 191.93-5.55L191.93-5.55 191.93-15.45Q191.93-18.2 191.18-19.1 190.43-20 188.23-20 186.03-20 184.03-18.4L184.03-18.4 184.03-5.55Q185.98-4.8 186.78-3.85L186.78-3.85 186.28 0 174.78 0 174.28-3.85Q174.98-4.8 177.03-5.55L177.03-5.55 177.03-19.45Q175.28-20.05 174.28-21.15L174.28-21.15ZM220.83-24.55L220.83-25.95Q220.83-31.15 223.08-33.77 225.33-36.4 230.23-36.4 235.13-36.4 238.73-33.75L238.73-33.75Q238.78-33.4 238.78-32.73 238.78-32.05 238.43-30.5 238.08-28.95 237.48-28L237.48-28 233.28-28Q232.38-29.7 232.33-31.2L232.33-31.2Q231.73-31.3 231.33-31.3L231.33-31.3Q229.43-31.3 228.63-30.25 227.83-29.2 227.83-26.45L227.83-26.45 227.83-24.55 235.48-24.55 235.48-19.95 227.83-19.95 227.83-5.8Q231.58-5.05 232.93-3.85L232.93-3.85 232.43 0 218.58 0 218.08-3.85Q218.78-4.8 220.83-5.55L220.83-5.55 220.83-19.95 218.63-19.95 218.08-23.4Q219.18-24.4 220.83-24.55L220.83-24.55ZM248.5 0.4Q242.58 0.4 239.73-2.75 236.88-5.9 236.88-12.28 236.88-18.65 240.05-22.03 243.23-25.4 249.18-25.4 255.13-25.4 258-22.4 260.88-19.4 260.88-13.03 260.88-6.65 257.65-3.13 254.43 0.4 248.5 0.4ZM244.08-12.7L244.08-12.7Q244.08-4.7 248.88-4.7L248.88-4.7Q251.33-4.7 252.5-6.53 253.68-8.35 253.68-12.5L253.68-12.5Q253.68-20.3 248.78-20.3L248.78-20.3Q246.38-20.3 245.23-18.57 244.08-16.85 244.08-12.7ZM278.43-18.85L278.43-18.85Q274.63-18.85 273.18-17.4L273.18-17.4 273.18-5.95Q277.23-5.2 278.73-3.85L278.73-3.85 278.23 0 263.93 0 263.43-3.85Q264.13-4.8 266.18-5.55L266.18-5.55 266.18-19.45Q264.43-20.05 263.43-21.15L263.43-21.15 263.93-25Q266.68-25.6 268.88-25.6 271.08-25.6 272.53-25.5L272.53-25.5 272.53-22.35Q273.68-23.7 275.48-24.58 277.28-25.45 278.75-25.45 280.23-25.45 280.78-25.2L280.78-25.2 280.63-18.7Q279.63-18.85 278.43-18.85ZM288.27-31.3L291.92-31.3 291.92-25 299.07-25 299.07-20.8 291.92-20.8 291.92-8.15Q291.92-6.55 292.37-5.83 292.82-5.1 294.52-5.1 296.22-5.1 298.17-5.85L298.17-5.85 299.67-1.95Q295.82 0 291.8 0 287.77 0 286.35-1.73 284.92-3.45 284.92-6.75L284.92-6.75 284.92-20.8 282.67-20.8 282.12-23.85Q282.92-24.8 285.42-25.75L285.42-25.75Q286.02-29.85 288.27-31.3L288.27-31.3Z" opacity="1" transform="matrix(1,0,0,1,0,0)" fill="#795744" class="wordmark-text-0" data-fill-palette-color="primary" id="text-0"></path></svg></g></svg></g><g transform="matrix(1,0,0,1,0,71.13158373730383)"><svg viewBox="0 0 395.52 19.86353963782696" height="19.86353963782696" width="395.52"><g transform="matrix(1,0,0,1,0,0)"><svg width="395.52" viewBox="2.65 -36.8 744.7 37.4" height="19.86353963782696" data-palette-color="#795744"><path d="M2.65 0L2.65-1.75 6.6-1.75 6.6-33.15 2.65-33.15 2.65-34.9 27.2-34.9 27.2-26.9 24.6-26.9 24.6-33.05 9.65-33.05 9.65-18.4 20.8-18.4 20.8-22.5 23.05-22.5 23.05-12.45 20.8-12.45 20.8-16.55 9.65-16.55 9.65-1.75 14.6-1.75 14.6 0 2.65 0ZM99.23 0.6L99.23 0.6Q94.73 0.6 92.68-1.83 90.63-4.25 90.63-9.1L90.63-9.1 90.63-23.2 86.73-23.7 86.73-25 93.53-26.1 93.53-9.4Q93.53-5.35 95.21-3.43 96.88-1.5 100.23-1.5L100.23-1.5Q101.48-1.5 102.71-1.85 103.93-2.2 104.86-2.9 105.78-3.6 106.36-4.7 106.93-5.8 106.93-7.25L106.93-7.25 106.93-23.2 103.03-23.7 103.03-25 109.83-26.1 109.83-2.4 113.73-1.9 113.73-0.6 107.03 0.5 107.03-4 106.83-4Q106.53-3.15 105.91-2.33 105.28-1.5 104.33-0.85 103.38-0.2 102.11 0.2 100.83 0.6 99.23 0.6ZM174.02 0L174.02-1.75 177.92-1.75 177.92-23.2 174.02-23.7 174.02-25 180.77-26.1 180.77-21.35 180.97-21.35Q181.32-22.2 181.89-23.08 182.47-23.95 183.29-24.65 184.12-25.35 185.22-25.78 186.32-26.2 187.72-26.2L187.72-26.2Q189.57-26.2 190.64-25.38 191.72-24.55 191.72-22.95L191.72-22.95Q191.72-21.8 191.12-21.15 190.52-20.5 189.57-20.5L189.57-20.5Q188.47-20.5 187.84-21.08 187.22-21.65 187.22-22.6L187.22-22.6Q187.22-23.35 187.57-23.85 187.92-24.35 188.32-24.45L188.32-24.45 188.32-24.55Q187.92-24.6 187.67-24.6 187.42-24.6 187.12-24.6L187.12-24.6Q186.02-24.6 184.89-24.05 183.77-23.5 182.87-22.6 181.97-21.7 181.39-20.55 180.82-19.4 180.82-18.2L180.82-18.2 180.82-1.75 185.77-1.75 185.77 0 174.02 0ZM251 0L251-1.75 254.9-1.75 254.9-23.2 251-23.7 251-25 257.75-26.1 257.75-21.6 257.95-21.6Q258.25-22.45 258.88-23.28 259.5-24.1 260.45-24.75 261.4-25.4 262.65-25.8 263.9-26.2 265.5-26.2L265.5-26.2Q270.05-26.2 272.08-23.8 274.1-21.4 274.1-16.55L274.1-16.55 274.1-1.75 278-1.75 278 0 267.3 0 267.3-1.75 271.2-1.75 271.2-16.25Q271.2-20.3 269.55-22.2 267.9-24.1 264.55-24.1L264.55-24.1Q263.25-24.1 262.05-23.75 260.85-23.4 259.9-22.68 258.95-21.95 258.38-20.88 257.8-19.8 257.8-18.35L257.8-18.35 257.8-1.75 261.7-1.75 261.7 0 251 0ZM343.63-32.4L343.63-32.4Q342.63-32.4 342.08-33.02 341.53-33.65 341.53-34.5L341.53-34.5 341.53-34.7Q341.53-35.55 342.08-36.18 342.63-36.8 343.63-36.8L343.63-36.8Q344.63-36.8 345.18-36.18 345.73-35.55 345.73-34.7L345.73-34.7 345.73-34.5Q345.73-33.65 345.18-33.02 344.63-32.4 343.63-32.4ZM338.28 0L338.28-1.75 342.18-1.75 342.18-23.2 338.28-23.7 338.28-25 345.08-26.1 345.08-1.75 348.98-1.75 348.98 0 338.28 0ZM416.37 0.2L416.37 0.2Q414.27 0.2 413.49-0.58 412.72-1.35 412.72-3.25L412.72-3.25 412.72-23.75 409.32-23.75 409.32-25.6 410.07-25.6Q411.82-25.6 412.39-26.1 412.97-26.6 413.17-27.75L413.17-27.75 413.92-32.5 415.62-32.5 415.62-25.6 422.47-25.6 422.47-23.75 415.62-23.75 415.62-1.85 422.47-1.85 422.47-0.5Q422.02-0.35 421.27-0.23 420.52-0.1 419.67 0 418.82 0.1 417.94 0.15 417.07 0.2 416.37 0.2ZM494.15 0.6L494.15 0.6Q489.65 0.6 487.6-1.83 485.55-4.25 485.55-9.1L485.55-9.1 485.55-23.2 481.65-23.7 481.65-25 488.45-26.1 488.45-9.4Q488.45-5.35 490.13-3.43 491.8-1.5 495.15-1.5L495.15-1.5Q496.4-1.5 497.63-1.85 498.85-2.2 499.78-2.9 500.7-3.6 501.28-4.7 501.85-5.8 501.85-7.25L501.85-7.25 501.85-23.2 497.95-23.7 497.95-25 504.75-26.1 504.75-2.4 508.65-1.9 508.65-0.6 501.95 0.5 501.95-4 501.75-4Q501.45-3.15 500.83-2.33 500.2-1.5 499.25-0.85 498.3-0.2 497.03 0.2 495.75 0.6 494.15 0.6ZM568.94 0L568.94-1.75 572.84-1.75 572.84-23.2 568.94-23.7 568.94-25 575.69-26.1 575.69-21.35 575.89-21.35Q576.24-22.2 576.81-23.08 577.39-23.95 578.21-24.65 579.04-25.35 580.14-25.78 581.24-26.2 582.64-26.2L582.64-26.2Q584.49-26.2 585.56-25.38 586.64-24.55 586.64-22.95L586.64-22.95Q586.64-21.8 586.04-21.15 585.44-20.5 584.49-20.5L584.49-20.5Q583.39-20.5 582.76-21.08 582.14-21.65 582.14-22.6L582.14-22.6Q582.14-23.35 582.49-23.85 582.84-24.35 583.24-24.45L583.24-24.45 583.24-24.55Q582.84-24.6 582.59-24.6 582.34-24.6 582.04-24.6L582.04-24.6Q580.94-24.6 579.81-24.05 578.69-23.5 577.79-22.6 576.89-21.7 576.31-20.55 575.74-19.4 575.74-18.2L575.74-18.2 575.74-1.75 580.69-1.75 580.69 0 568.94 0ZM657.27 0.6L657.27 0.6Q652.07 0.6 649.02-2.9 645.97-6.4 645.97-12.8L645.97-12.8Q645.97-15.85 646.79-18.35 647.62-20.85 649.12-22.58 650.62-24.3 652.67-25.25 654.72-26.2 657.17-26.2L657.17-26.2Q659.57-26.2 661.49-25.3 663.42-24.4 664.77-22.83 666.12-21.25 666.84-19.03 667.57-16.8 667.57-14.2L667.57-14.2 667.57-13.35 649.17-13.35 649.17-11.75Q649.17-6.9 651.52-4.3 653.87-1.7 657.67-1.7L657.67-1.7Q660.82-1.7 662.79-3.1 664.77-4.5 665.82-6.55L665.82-6.55 667.07-5.8Q666.57-4.6 665.72-3.45 664.87-2.3 663.64-1.4 662.42-0.5 660.84 0.05 659.27 0.6 657.27 0.6ZM649.17-15.4L649.17-15.05 664.52-15.05 664.52-15.35Q664.52-17.3 664.07-18.95 663.62-20.6 662.69-21.83 661.77-23.05 660.39-23.73 659.02-24.4 657.17-24.4L657.17-24.4Q655.32-24.4 653.84-23.75 652.37-23.1 651.32-21.9 650.27-20.7 649.72-19.05 649.17-17.4 649.17-15.4L649.17-15.4ZM738.45 0.6L738.45 0.6Q735.8 0.6 734.08-0.38 732.35-1.35 731.65-2.65L731.65-2.65 731.5-2.65 731.5 0 729.3 0 729.3-7.55 731.5-7.55 731.5-6.2Q731.5-3.85 733.2-2.55 734.9-1.25 738-1.25L738-1.25Q741.15-1.25 742.85-2.45 744.55-3.65 744.55-6.15L744.55-6.15Q744.55-8.3 743.28-9.5 742-10.7 739.5-11.25L739.5-11.25 736.85-11.8Q733.35-12.6 731.43-14.33 729.5-16.05 729.5-19.35L729.5-19.35Q729.5-22.65 731.83-24.43 734.15-26.2 737.9-26.2L737.9-26.2Q740.5-26.2 742.08-25.35 743.65-24.5 744.2-23.25L744.2-23.25 744.4-23.25 744.4-25.6 746.6-25.6 746.6-18.05 744.4-18.05 744.4-19.85Q744.4-22.1 742.83-23.23 741.25-24.35 738.25-24.35L738.25-24.35Q735.45-24.35 733.85-23.23 732.25-22.1 732.25-19.8L732.25-19.8Q732.25-17.6 733.58-16.43 734.9-15.25 737.3-14.7L737.3-14.7 739.85-14.15Q743.5-13.35 745.43-11.65 747.35-9.95 747.35-6.65L747.35-6.65Q747.35-3.45 745-1.43 742.65 0.6 738.45 0.6Z" opacity="1" transform="matrix(1,0,0,1,0,0)" fill="#795744" class="slogan-text-1" data-fill-palette-color="secondary" id="text-1"></path></svg></g></svg></g></svg></g></svg></g><g></g></svg></g></svg></g></svg></g><defs></defs></svg><rect width="395.52" height="90.99512337513079" fill="none" stroke="none" visibility="hidden"></rect></g></svg></g></svg>